<svg width="395" height="181" viewBox="0 0 395 181" fill="none" xmlns="http://www.w3.org/2000/svg">
<path d="M-1.68762 104.634C19.8594 88.4826 83.1335 56.7092 163.854 58.8306C244.575 60.9519 322.879 16.8159 351.94 -5.51723" stroke="#BEE6D8" stroke-width="5"/>
<path d="M273 38.0378C301.525 30.3954 365.061 23.8884 391 59" stroke="#BEE5D8" stroke-width="5" stroke-linecap="round"/>
<path d="M318 32.1425C335.955 22.9847 375.891 15.3352 392 58" stroke="#BEE5D8" stroke-width="5" stroke-linecap="round"/>
<path d="M320 32C331.917 45.0274 362.801 68.5852 391 58.5976" stroke="#BEE5D8" stroke-width="5" stroke-linecap="round"/>
<path d="M120 61C145.735 63.0235 202.765 74.4565 225 104" stroke="#BEE5D8" stroke-width="5" stroke-linecap="round"/>
<path d="M172 71.6149C187.962 69.2535 221.109 72.4245 226 104" stroke="#BEE5D8" stroke-width="5" stroke-linecap="round"/>
<path d="M174 72C176.6 83.3241 190.64 105.56 226 103.913" stroke="#BEE5D8" stroke-width="5" stroke-linecap="round"/>
<path d="M115 15C97.6667 24 61.7 48.4 56.5 74" stroke="#BEE5D8" stroke-width="5" stroke-linecap="round"/>
<path d="M115 15C94 13 54.3 18.7 63.5 57.5" stroke="#BEE5D8" stroke-width="5" stroke-linecap="round"/>
<path d="M114.5 15.5C112.167 27.5 98.9 52.5 64.5 56.5" stroke="#BEE5D8" stroke-width="5" stroke-linecap="round"/>
</svg>
