<svg width="348" height="204" viewBox="0 0 348 204" fill="none" xmlns="http://www.w3.org/2000/svg">
<path d="M355.279 83.0217C333.86 100.773 270.838 135.843 190.103 134.118C109.367 132.392 31.4147 181.039 2.53021 205.578" stroke="#BEE6D8" stroke-width="5"/>
<path d="M296 116C273.833 128.833 228.1 159.5 222.5 179.5" stroke="#BEE5D8" stroke-width="5" stroke-linecap="round"/>
<path d="M266.5 135C267 148.667 258.9 176.8 222.5 180" stroke="#BEE5D8" stroke-width="5" stroke-linecap="round"/>
<path d="M265 137C245.951 139 210.737 150.4 222.27 180" stroke="#BEE5D8" stroke-width="5" stroke-linecap="round"/>
<path d="M152.009 136.859C129.083 139.461 76.7406 138.931 50.7795 116" stroke="#BEE5D8" stroke-width="5" stroke-linecap="round"/>
<path d="M51 116C66.6667 110.333 102.1 106.5 118.5 136.5" stroke="#BEE5D8" stroke-width="5" stroke-linecap="round"/>
<path d="M51 116C49.3333 129.333 60.2 152.3 117 137.5" stroke="#BEE5D8" stroke-width="5" stroke-linecap="round"/>
<path d="M271 123C249.865 119.675 204.675 107.42 193 85" stroke="#BEE5D8" stroke-width="5" stroke-linecap="round"/>
<path d="M193 85C210 82.6667 245.6 86.1 252 118.5" stroke="#BEE5D8" stroke-width="5" stroke-linecap="round"/>
<path d="M193 85C193.168 100.721 205.003 129.454 251 118.616" stroke="#BEE5D8" stroke-width="5" stroke-linecap="round"/>
</svg>
